<svg width="40" height="40" viewBox="0 0 40 40" fill="none" xmlns="http://www.w3.org/2000/svg">
<rect width="40" height="40" rx="16" fill="#2A2E31"/>
<path d="M20 24.936L16.2447 27.7854C16.0586 27.9367 15.8556 28.008 15.6357 27.9993C15.4158 27.9912 15.2213 27.9283 15.0521 27.8107C14.8829 27.693 14.752 27.5333 14.6593 27.3316C14.5659 27.1298 14.5615 26.9113 14.6461 26.6759L16.0924 22.0109L12.4132 19.4136C12.2102 19.2791 12.0834 19.1026 12.0326 18.8841C11.9819 18.6655 11.9903 18.4638 12.058 18.2789C12.1257 18.094 12.2441 17.9299 12.4132 17.7867C12.5824 17.6441 12.7854 17.5728 13.0222 17.5728H17.5641L19.0358 12.7313C19.1204 12.4959 19.2516 12.315 19.4296 12.1886C19.6069 12.0629 19.797 12 20 12C20.203 12 20.3931 12.0629 20.5704 12.1886C20.7484 12.315 20.8796 12.4959 20.9642 12.7313L22.4359 17.5728H26.9778C27.2146 17.5728 27.4176 17.6441 27.5868 17.7867C27.7559 17.9299 27.8743 18.094 27.942 18.2789C28.0097 18.4638 28.0181 18.6655 27.9674 18.8841C27.9166 19.1026 27.7898 19.2791 27.5868 19.4136L23.9076 22.0109L25.3539 26.6759C25.4385 26.9113 25.4344 27.1298 25.3417 27.3316C25.2483 27.5333 25.1171 27.693 24.9479 27.8107C24.7787 27.9283 24.5842 27.9912 24.3643 27.9993C24.1444 28.008 23.9414 27.9367 23.7553 27.7854L20 24.936Z" fill="#FC7613"/>
</svg>
